<svg xmlns="http://www.w3.org/2000/svg" xmlns:xlink="http://www.w3.org/1999/xlink" width="500" zoomAndPan="magnify" viewBox="0 0 375 374.999991" height="500" preserveAspectRatio="xMidYMid meet" version="1.0"><defs><g/><clipPath id="77728f6fff"><path d="M 68.75 68.75 L 306.5 68.75 L 306.5 306.5 L 68.75 306.5 Z M 68.75 68.75 " clip-rule="nonzero"/></clipPath></defs><rect x="-37.5" width="450" fill="#ffffff" y="-37.499999" height="449.999989" fill-opacity="1"/><rect x="-37.5" width="450" fill="#5e17eb" y="-37.499999" height="449.999989" fill-opacity="1"/><g clip-path="url(#77728f6fff)"><path fill="#8c52ff" d="M 187.496094 306.242188 C 122.019531 306.242188 68.75 252.972656 68.75 187.496094 C 68.75 122.019531 122.019531 68.75 187.496094 68.75 C 252.972656 68.75 306.242188 122.019531 306.242188 187.496094 C 306.242188 252.972656 252.972656 306.242188 187.496094 306.242188 Z M 187.496094 70.855469 C 123.179688 70.855469 70.855469 123.179688 70.855469 187.496094 C 70.855469 251.8125 123.179688 304.136719 187.496094 304.136719 C 251.8125 304.136719 304.136719 251.8125 304.136719 187.496094 C 304.136719 123.179688 251.8125 70.855469 187.496094 70.855469 Z M 187.496094 70.855469 " fill-opacity="1" fill-rule="nonzero"/></g><g fill="#000000" fill-opacity="1"><g transform="translate(121.30994, 270.601564)"><g><path d="M 12.234375 -168.28125 L 60.984375 -168.28125 C 84.378906 -168.28125 104.367188 -160.289062 120.953125 -144.3125 C 137.546875 -128.332031 145.84375 -108.3125 145.84375 -84.25 C 145.84375 -60.039062 137.582031 -39.945312 121.0625 -23.96875 C 104.539062 -7.988281 84.515625 0 60.984375 0 L 12.234375 0 Z M 50.59375 -34.265625 L 56.5 -34.265625 C 70.507812 -34.265625 81.96875 -38.988281 90.875 -48.4375 C 99.78125 -57.894531 104.300781 -69.765625 104.4375 -84.046875 C 104.4375 -98.316406 99.984375 -110.210938 91.078125 -119.734375 C 82.171875 -129.253906 70.644531 -134.015625 56.5 -134.015625 L 50.59375 -134.015625 Z M 50.59375 -34.265625 "/></g></g></g></svg>